HIERARCHY
ROOT Hips
{
	OFFSET 0.000000 0.000000 0.000000
	CHANNELS 6 Xposition Yposition Zposition Xrotation Yrotation Zrotation
	JOINT LeftUpLeg_virtual
	{
		OFFSET 0.000000 0.000000 0.000000
		CHANNELS 3 Xrotation Yrotation Zrotation
		JOINT LeftUpLeg
		{
			OFFSET 10.205400 -3.823500 0.155100
			CHANNELS 3 Xrotation Yrotation Zrotation
			JOINT LeftLeg
			{
				OFFSET 0.708757 -12.982077 0.567790
				CHANNELS 3 Xrotation Yrotation Zrotation
				JOINT LeftFoot
				{
					OFFSET -0.708756 -10.717838 -2.184338
					CHANNELS 3 Xrotation Yrotation Zrotation
					JOINT LeftToeBase
					{
						OFFSET 0.108149 -7.191104 7.560241
						CHANNELS 3 Xrotation Yrotation Zrotation
						JOINT LeftToe_End
						{
							OFFSET 0.070230 0.081724 4.490308
							CHANNELS 3 Xrotation Yrotation Zrotation
							End Site
							{
								OFFSET 0 0 0
							}
						}
					}
				}
			}
		}
	}
	JOINT RightUpLeg_virtual
	{
		OFFSET 0.000000 0.000000 0.000000
		CHANNELS 3 Xrotation Yrotation Zrotation
		JOINT RightUpLeg
		{
			OFFSET -10.205400 -3.823500 0.005500
			CHANNELS 3 Xrotation Yrotation Zrotation
			JOINT RightLeg
			{
				OFFSET -0.708756 -12.982134 0.610632
				CHANNELS 3 Xrotation Yrotation Zrotation
				JOINT RightFoot
				{
					OFFSET 0.708754 -10.717769 -1.945823
					CHANNELS 3 Xrotation Yrotation Zrotation
					JOINT RightToeBase
					{
						OFFSET -0.108140 -7.191069 7.372968
						CHANNELS 3 Xrotation Yrotation Zrotation
						JOINT RightToe_End
						{
							OFFSET -0.070227 0.081735 4.479403
							CHANNELS 3 Xrotation Yrotation Zrotation
							End Site
							{
								OFFSET 0 0 0
							}
						}
					}
				}
			}
		}
	}
	JOINT Spine_virtual
	{
		OFFSET 0.000000 0.000000 0.000000
		CHANNELS 3 Xrotation Yrotation Zrotation
		JOINT Spine
		{
			OFFSET 0.000000 6.876099 0.125700
			CHANNELS 3 Xrotation Yrotation Zrotation
			JOINT Spine1
			{
				OFFSET 0.000000 5.730043 0.104720
				CHANNELS 3 Xrotation Yrotation Zrotation
				JOINT Spine1_split
				{
					OFFSET 0.000000 5.730043 0.104720
					CHANNELS 3 Xrotation Yrotation Zrotation
					JOINT Spine2
					{
						OFFSET 0.000000 5.730043 0.104720
						CHANNELS 3 Xrotation Yrotation Zrotation
						JOINT Neck_virtual
						{
							OFFSET 0.000000 0.000000 0.000000
							CHANNELS 3 Xrotation Yrotation Zrotation
							JOINT Neck
							{
								OFFSET 0.000000 10.314075 0.188496
								CHANNELS 3 Xrotation Yrotation Zrotation
								JOINT Head
								{
									OFFSET 0.000000 7.643700 -2.377400
									CHANNELS 3 Xrotation Yrotation Zrotation
									JOINT HeadTop_End
									{
										OFFSET 0.000000 43.788605 -13.619600
										CHANNELS 3 Xrotation Yrotation Zrotation
										End Site
										{
											OFFSET 0 0 0
										}
									}
								}
							}
						}
						JOINT LeftShoulder_virtual
						{
							OFFSET 0.000000 0.000000 0.000000
							CHANNELS 3 Xrotation Yrotation Zrotation
							JOINT LeftShoulder
							{
								OFFSET 2.196100 4.412489 0.087492
								CHANNELS 3 Xrotation Yrotation Zrotation
								JOINT LeftShoulder_split
								{
									OFFSET 2.196100 4.412489 0.087492
									CHANNELS 3 Xrotation Yrotation Zrotation
									JOINT LeftArm
									{
										OFFSET 8.771219 -2.981674 -0.026999
										CHANNELS 3 Xrotation Yrotation Zrotation
										JOINT LeftForeArm
										{
											OFFSET 8.512804 0.000000 -0.000000
											CHANNELS 3 Xrotation Yrotation Zrotation
											JOINT LeftHand
											{
												OFFSET 18.484802 0.000000 -0.000000
												CHANNELS 3 Xrotation Yrotation Zrotation
												End Site
												{
													OFFSET 0 0 0
												}
											}
										}
									}
								}
							}
						}
						JOINT RightShoulder_virtual
						{
							OFFSET 0.000000 0.000000 0.000000
							CHANNELS 3 Xrotation Yrotation Zrotation
							JOINT RightShoulder
							{
								OFFSET -2.196100 4.412496 0.070690
								CHANNELS 3 Xrotation Yrotation Zrotation
								JOINT RightShoulder_split
								{
									OFFSET -2.196100 4.412496 0.070690
									CHANNELS 3 Xrotation Yrotation Zrotation
									JOINT RightArm
									{
										OFFSET -8.771282 -2.981682 -0.094208
										CHANNELS 3 Xrotation Yrotation Zrotation
										JOINT RightForeArm
										{
											OFFSET -8.494598 0.000000 0.000000
											CHANNELS 3 Xrotation Yrotation Zrotation
											JOINT RightHand
											{
												OFFSET -18.483803 0.000000 0.000001
												CHANNELS 3 Xrotation Yrotation Zrotation
												End Site
												{
													OFFSET 0 0 0
												}
											}
										}
									}
								}
							}
						}
					}
				}
			}
		}
	}
}
MOTION
Frames: 11
Frame Time: 0.03333333
-0.801402 29.162949 -2.958317 0.000000 0.000000 0.000000 5.681659 -53.621592 5.667596 -34.632099 17.867056 34.746924 42.037523 -17.012709 -6.114713 -12.169769 1.460973 -13.767891 -0.795069 -1.890792 -2.440719 0.000000 0.000000 0.000000 4.905238 -52.260004 5.209097 -24.853030 -3.873203 -27.148381 41.368957 18.156887 -2.031730 -22.692416 -9.369321 32.641518 7.901431 12.044146 -16.931977 0.000000 0.000000 0.000000 1.906163 -43.699069 3.347598 5.473305 3.711543 -3.095333 10.358849 -4.552853 -3.867487 0.206509 -0.441794 0.124123 0.000000 0.000000 0.000000 13.803596 -1.521626 -3.921510 -17.004477 28.332308 2.088861 -40.044849 48.926431 19.453193 0.000000 0.000000 0.000000 13.827531 -4.008054 -4.288366 -0.531984 -5.031365 -0.428657 -2.436213 -3.378025 -0.743944 -31.308166 -0.209958 -33.279827 28.006019 -44.846885 19.991281 0.000000 0.000000 0.000000 15.342944 -2.811192 -3.663983 -9.031860 9.111842 -0.351094 6.192204 3.790946 2.700180 -44.001018 -25.356734 30.551781 177.538856 66.732499 -177.620791 0.000000 0.000000 0.000000 
-0.813420 29.168444 -2.960833 0.000000 0.000000 0.000000 5.571563 -53.524497 5.792868 -34.086988 17.827200 34.339217 41.193872 -16.747426 -6.047268 -12.014403 1.505904 -14.134895 -0.304680 -1.906622 -2.457761 0.000000 0.000000 0.000000 4.958511 -52.273275 5.470936 -24.903437 -3.352132 -27.416359 41.447593 18.256291 -2.073298 -22.789852 -9.274285 33.278557 7.943927 12.212150 -17.119316 0.000000 0.000000 0.000000 2.228527 -43.570350 3.610753 5.530024 3.549896 -3.157595 10.556733 -4.447010 -3.678967 0.159463 -0.409293 0.143000 0.000000 0.000000 0.000000 13.836848 -1.378421 -3.739256 -16.117465 27.891962 2.169520 -38.026846 47.361744 17.953699 0.000000 0.000000 0.000000 13.901803 -3.907525 -4.172514 -0.473099 -4.823128 -1.496490 -2.565775 -3.312200 -0.639862 -29.556896 0.187942 -33.188637 28.741450 -45.660293 20.503772 0.000000 0.000000 0.000000 15.359934 -2.652242 -3.436948 -8.948227 9.471681 0.165401 6.699893 3.417960 3.044830 -45.072435 -24.537648 29.712351 178.986624 65.736213 -179.105373 0.000000 0.000000 0.000000 
-0.843121 29.232712 -2.954185 0.000000 0.000000 0.000000 5.759442 -53.431019 6.270568 -33.547471 17.813511 33.689054 40.167458 -16.453239 -6.006047 -11.717623 1.622287 -14.568430 0.062870 -1.912986 -2.424495 0.000000 0.000000 0.000000 5.204134 -52.284651 5.985847 -24.987786 -3.100635 -27.666282 41.327566 18.229242 -2.046403 -22.797365 -9.343529 33.818906 7.885238 12.397381 -17.226784 0.000000 0.000000 0.000000 2.860174 -43.481753 4.160324 5.652675 3.375396 -3.320965 10.673345 -4.276678 -3.496583 0.116881 -0.412871 0.149233 0.000000 0.000000 0.000000 13.908114 -1.183481 -3.565001 -15.585406 27.466204 2.376559 -36.848082 46.204871 16.837151 0.000000 0.000000 0.000000 13.922809 -3.741408 -4.059477 -0.368909 -4.521985 -2.303754 -2.721799 -3.070766 -0.723165 -27.944331 0.279801 -33.131991 28.928826 -45.541871 20.481850 0.000000 0.000000 0.000000 15.318157 -2.451678 -3.220352 -8.935103 9.572350 0.734299 7.154811 3.078106 3.496737 -45.807716 -23.283358 29.362570 -179.674096 65.453689 179.508710 0.000000 0.000000 0.000000 
-0.876250 29.303833 -2.929979 0.000000 0.000000 0.000000 6.077292 -53.378700 6.972056 -33.165124 17.802063 32.889178 39.366485 -16.237089 -5.912843 -11.400645 1.757771 -15.077311 0.134623 -1.897666 -2.373554 0.000000 0.000000 0.000000 5.558323 -52.320499 6.670311 -25.130243 -3.103515 -27.902060 41.313820 18.068668 -2.014144 -22.977909 -9.625015 34.091219 7.867075 12.540035 -17.177951 0.000000 0.000000 0.000000 3.520063 -43.437104 4.849465 5.869265 3.221980 -3.584751 10.737544 -4.071236 -3.352632 0.091667 -0.441512 0.118564 0.000000 0.000000 0.000000 14.040187 -0.970100 -3.438526 -15.448035 27.058517 2.691358 -36.385917 45.495347 16.094658 0.000000 0.000000 0.000000 13.938933 -3.539235 -3.968337 -0.225734 -4.234732 -2.667119 -2.899602 -2.793224 -0.949719 -26.747463 0.035502 -32.996111 28.529488 -44.503566 19.967326 0.000000 0.000000 0.000000 15.292841 -2.236476 -3.044896 -8.957178 9.461623 1.239210 7.402406 2.862039 3.803238 -46.262941 -22.082398 29.482512 -178.530435 65.617819 178.296037 0.000000 0.000000 0.000000 
-0.899253 29.345480 -2.887594 0.000000 0.000000 0.000000 6.465724 -53.389485 7.799659 -32.940681 17.780176 32.009883 38.977045 -16.067501 -5.762608 -11.254033 1.930340 -15.530262 0.023344 -1.855766 -2.425649 0.000000 0.000000 0.000000 5.916400 -52.364502 7.430939 -25.309437 -3.260657 -28.150097 41.522841 17.828822 -2.011744 -23.378056 -10.066843 34.101577 7.792416 12.636521 -16.931021 0.000000 0.000000 0.000000 3.996804 -43.425103 5.551956 6.179153 3.105094 -3.916041 10.769288 -3.877703 -3.282615 0.102621 -0.482103 0.086633 0.000000 0.000000 0.000000 14.235818 -0.767438 -3.395951 -15.553247 26.703051 3.040204 -36.407999 45.246257 15.691432 0.000000 0.000000 0.000000 13.987667 -3.339451 -3.923524 -0.059283 -3.961221 -2.579045 -3.013981 -2.755964 -1.159665 -26.074167 -0.436610 -32.812195 27.788387 -42.903809 19.236639 0.000000 0.000000 0.000000 15.328433 -2.034727 -2.956841 -8.974755 9.203059 1.534463 7.495342 2.867869 3.904311 -46.534291 -21.350840 29.943392 -177.713299 65.899619 177.376734 0.000000 0.000000 0.000000 
-0.912532 29.346663 -2.841888 0.000000 0.000000 0.000000 6.847248 -53.407978 8.617329 -32.928267 17.702488 31.183427 38.951828 -15.986121 -5.561738 -11.235233 2.127252 -16.016196 -0.072155 -1.771000 -2.656384 0.000000 0.000000 0.000000 6.294625 -52.365838 8.190167 -25.496828 -3.461177 -28.410491 41.976191 17.603025 -2.082023 -23.898478 -10.535779 34.021476 7.632930 12.680891 -16.530868 0.000000 0.000000 0.000000 4.233631 -43.424847 6.178190 6.515959 3.034444 -4.234690 10.776733 -3.722166 -3.311194 0.109494 -0.510865 0.072969 0.000000 0.000000 0.000000 14.438292 -0.607960 -3.461804 -15.730344 26.414833 3.338418 -36.508847 45.488367 15.506102 0.000000 0.000000 0.000000 14.060430 -3.169170 -3.951830 0.116795 -3.729014 -2.154914 -3.100367 -2.899293 -1.471307 -25.887846 -0.883638 -32.637827 26.931714 -41.165557 18.525688 0.000000 0.000000 0.000000 15.407365 -1.877279 -2.983152 -8.979125 8.887442 1.586845 7.574508 3.080950 3.727440 -46.604143 -21.367436 30.653435 -177.291712 66.003806 176.816413 0.000000 0.000000 0.000000 
-0.924348 29.315399 -2.788792 0.000000 0.000000 0.000000 7.229151 -53.413770 9.346312 -33.040531 17.610202 30.529959 39.063764 -16.000463 -5.371984 -11.227384 2.256988 -16.581077 -0.203651 -1.660494 -2.941561 0.000000 0.000000 0.000000 6.682367 -52.306203 8.888328 -25.666551 -3.604276 -28.684110 42.537926 17.467903 -2.218272 -24.435929 -10.887315 34.019133 7.423553 12.707155 -16.078576 0.000000 0.000000 0.000000 4.306391 -43.465879 6.703069 6.803348 3.008782 -4.458169 10.748554 -3.630083 -3.434099 0.116228 -0.523879 0.070367 0.000000 0.000000 0.000000 14.589762 -0.519577 -3.632149 -15.812055 26.222121 3.496089 -36.435934 46.134103 15.432404 0.000000 0.000000 0.000000 14.134716 -3.066075 -4.063867 0.300190 -3.586017 -1.543474 -3.093105 -3.076228 -1.797632 -25.961829 -1.069099 -32.547419 26.088218 -39.648053 17.935556 0.000000 0.000000 0.000000 15.516421 -1.786257 -3.114651 -8.962221 8.639904 1.431400 7.604525 3.286297 3.426451 -46.471238 -22.132605 31.528443 -177.252630 65.828462 176.647106 0.000000 0.000000 0.000000 
-0.945500 29.270849 -2.735199 0.000000 0.000000 0.000000 7.626782 -53.415846 9.978975 -33.196543 17.568947 30.095244 39.130881 -16.035244 -5.261269 -11.217721 2.308584 -17.024096 -0.265591 -1.555410 -3.223353 0.000000 0.000000 0.000000 7.072370 -52.133331 9.483312 -25.823149 -3.653529 -28.973632 43.073331 17.447018 -2.395292 -24.920881 -11.083397 34.159699 7.235522 12.725249 -15.678189 0.000000 0.000000 0.000000 4.301137 -43.538057 7.145671 7.018515 3.009416 -4.532514 10.680386 -3.614979 -3.637102 0.119949 -0.507582 0.085582 0.000000 0.000000 0.000000 14.661942 -0.514978 -3.872355 -15.698474 26.155154 3.444234 -36.053109 47.179013 15.368291 0.000000 0.000000 0.000000 14.186468 -3.054873 -4.258514 0.489752 -3.519040 -0.923737 -3.106263 -3.218156 -2.068731 -26.097967 -0.868021 -32.603034 25.300262 -38.496080 17.465863 0.000000 0.000000 0.000000 15.598180 -1.778741 -3.328498 -8.930577 8.508110 1.114207 7.691312 3.529469 3.070588 -46.136743 -23.333572 32.430428 -177.404410 65.520837 176.705723 0.000000 0.000000 0.000000 
-0.983393 29.226751 -2.689789 0.000000 0.000000 0.000000 7.992781 -53.375381 10.492736 -33.427202 17.590382 29.916584 39.112498 -16.111491 -5.236798 -11.176603 2.243263 -17.272427 -0.195467 -1.477522 -3.415465 0.000000 0.000000 0.000000 7.466193 -51.925639 9.980857 -25.992954 -3.637849 -29.230116 43.588297 17.488749 -2.580454 -25.366790 -11.152776 34.363238 7.204415 12.737171 -15.408791 0.000000 0.000000 0.000000 4.352788 -43.581122 7.547171 7.142757 3.028934 -4.426081 10.583628 -3.665432 -3.876898 0.104836 -0.477177 0.087580 0.000000 0.000000 0.000000 14.632673 -0.585702 -4.143270 -15.377730 26.211290 3.162447 -35.387012 48.518693 15.220404 0.000000 0.000000 0.000000 14.198024 -3.125858 -4.504023 0.675451 -3.537475 -0.403285 -3.199942 -3.246607 -2.284224 -26.191737 -0.369138 -32.775359 24.530034 -37.651449 17.045736 0.000000 0.000000 0.000000 15.627094 -1.844329 -3.575710 -8.884889 8.537368 0.736911 7.887870 3.705114 2.791578 -45.631493 -24.488537 33.213629 -177.544210 65.265791 176.805061 0.000000 0.000000 0.000000 
-1.033319 29.187738 -2.665903 0.000000 0.000000 0.000000 8.316359 -53.279522 10.899500 -33.698442 17.713631 29.948392 39.006831 -16.208954 -5.311849 -11.128986 2.078852 -17.271047 -0.017751 -1.434234 -3.477439 0.000000 0.000000 0.000000 7.794890 -51.736788 10.382131 -26.207228 -3.608716 -29.420972 44.054242 17.523655 -2.734854 -25.803106 -11.175642 34.518079 7.318686 12.759873 -15.291429 0.000000 0.000000 0.000000 4.524010 -43.588720 7.916779 7.194631 3.063842 -4.167764 10.492085 -3.760095 -4.110651 0.103564 -0.455913 0.083702 0.000000 0.000000 0.000000 14.526491 -0.709635 -4.399474 -14.911703 26.373896 2.685478 -34.563363 49.998088 14.883696 0.000000 0.000000 0.000000 14.182025 -3.252881 -4.743907 0.841010 -3.601178 -0.045762 -3.338506 -3.352078 -2.309200 -26.208384 0.172381 -33.023302 23.835994 -37.102503 16.694874 0.000000 0.000000 0.000000 15.608685 -1.957895 -3.810693 -8.824143 8.692675 0.344548 8.011319 3.816752 2.774492 -45.007726 -25.147069 33.731528 -177.616952 65.217091 176.891723 0.000000 0.000000 0.000000 
-1.088030 29.149832 -2.664354 0.000000 0.000000 0.000000 8.571478 -53.148475 11.201608 -34.040474 17.926154 30.092727 38.896373 -16.281894 -5.455795 -11.087523 1.920187 -17.030076 0.319219 -1.421941 -3.484072 0.000000 0.000000 0.000000 8.038492 -51.593121 10.687346 -26.489388 -3.590328 -29.542563 44.482659 17.524239 -2.844772 -26.212572 -11.216462 34.608261 7.437951 12.793140 -15.281280 0.000000 0.000000 0.000000 4.816871 -43.516686 8.261983 7.225252 3.109815 -3.817581 10.425958 -3.867149 -4.313094 0.101938 -0.445816 0.082170 0.000000 0.000000 0.000000 14.385541 -0.849424 -4.610931 -14.374748 26.599724 2.099922 -33.631175 51.479423 14.316892 0.000000 0.000000 0.000000 14.135143 -3.397529 -4.941364 0.962668 -3.667522 0.119244 -3.448591 -3.543169 -2.056935 -26.129700 0.596057 -33.288354 23.324085 -36.869173 16.473252 0.000000 0.000000 0.000000 15.545371 -2.088403 -4.003104 -8.756672 8.889816 -0.005061 8.056900 3.951014 2.939858 -44.488526 -25.117227 33.837662 -177.581777 65.396083 176.888963 0.000000 0.000000 0.000000 
